# xmcd CD database file
#
# Track frame offsets:
#	150
#	21706
#	41226
#	60438
#	81214
#	101698
#	120671
#	139280
#	160806
#	181023
#	201477
#	223803
#	241184
#	264730
#	286454
#	305976
#
# Disc length: 4302 seconds
#
# Revision: 3
# Processed by: cddbd v1.5.1PL0 Copyright (c) Steve Scherf et al.
# Submitted via: CDex 1.51
#
DISCID=fa10cc10
DTITLE=Hitomi Shimatani - Delicious! The Best of Hitomi Shimatani
DYEAR=2003
DGENRE=JPop
TTITLE0=解放区
TTITLE1=パピヨン〜Papillon〜
TTITLE2=市場に行こう
TTITLE3=Fantasista
TTITLE4=やさしいキスの見つけ方
TTITLE5=シャンティ
TTITLE6=亜麻色の髪の乙女
TTITLE7=A.S.A.P.~as soon as possible~
TTITLE8=いつの日にか…
TTITLE9=Poinsettia
TTITLE10=赤い砂漠の伝説
TTITLE11=元気を出して
TTITLE12=Perseus−ペルセウス−
TTITLE13=La Fiesta
TTITLE14=YUME日和
TTITLE15=花鳥諷詠 - Song for Everybody -
EXTD=YEAR: 2003
EXTT0=
EXTT1=
EXTT2=
EXTT3=
EXTT4=
EXTT5=
EXTT6=
EXTT7=
EXTT8=
EXTT9=
EXTT10=
EXTT11=
EXTT12=
EXTT13=
EXTT14=
EXTT15=
PLAYORDER=
